PathFileType	4	(X/Y/Z)	 s10c0202.trc
DataRate	CameraRate	NumFrames	NumMarkers	Units	OrigDataRate	OrigDataStartFrame	OrigNumFrames
200	200	4	50	mm	200	1001	2000
Frame#	Time	racr			lacr			c7			jug			rlel			rdr			llel			ldr			s2			lic			ric			lasi			rasi			rpsi			lpsi			rgt			lgt			rth1			rth2			rth3			rth4			rlfc			rmfc			rsh1			rsh2			rsh3			rsh4			rlmal			rmmal			rcal			rtoe			rmt5			lth1			lth2			lth4			lth3			llfc			lmfc			llmal			lmmal			lcal			lmt5			lsh1			lsh2			lsh3			lsh4			ltoe			SBIKE			LBIKE			RBIKE			
		X1	Y1	Z1	X2	Y2	Z2	X3	Y3	Z3	X4	Y4	Z4	X5	Y5	Z5	X6	Y6	Z6	X7	Y7	Z7	X8	Y8	Z8	X9	Y9	Z9	X10	Y10	Z10	X11	Y11	Z11	X12	Y12	Z12	X13	Y13	Z13	X14	Y14	Z14	X15	Y15	Z15	X16	Y16	Z16	X17	Y17	Z17	X18	Y18	Z18	X19	Y19	Z19	X20	Y20	Z20	X21	Y21	Z21	X22	Y22	Z22	X23	Y23	Z23	X24	Y24	Z24	X25	Y25	Z25	X26	Y26	Z26	X27	Y27	Z27	X28	Y28	Z28	X29	Y29	Z29	X30	Y30	Z30	X31	Y31	Z31	X32	Y32	Z32	X33	Y33	Z33	X34	Y34	Z34	X35	Y35	Z35	X36	Y36	Z36	X37	Y37	Z37	X38	Y38	Z38	X39	Y39	Z39	X40	Y40	Z40	X41	Y41	Z41	X42	Y42	Z42	X43	Y43	Z43	X44	Y44	Z44	X45	Y45	Z45	X46	Y46	Z46	X47	Y47	Z47	X48	Y48	Z48	X49	Y49	Z49	X50	Y50	Z50	
1001	5.0050	361.034257	1237.210783	29.549367	490.779864	1225.198454	-278.479217	397.425881	1313.848653	-162.340335	392.594929	1166.263846	-140.247403	369.808921	967.959931	72.755314	580.204911	909.236031	8.606338	474.988011	1032.944758	-484.005736	621.603989	906.055110	-397.165508	-93.652141	1102.609573	-251.353944	87.932986	1097.378098	-391.258127	48.491501	1136.786762	-109.066669	106.108993	1016.839733	-355.179579	76.899668	1060.116213	-100.201734	-62.290303	1169.457023	-204.691326	-36.979237	1164.466718	-317.375187	-24.676783	1048.444801	-51.641141	-26.150517	965.963761	-422.665870	90.457088	950.702644	-21.916033	176.894942	932.522047	-31.288813	240.728313	875.649629	-26.496721	191.156266	964.471999	-45.414983	344.914418	815.707755	-44.580399	338.026575	794.170181	-161.313520	289.628822	712.028856	-18.039774	285.982309	623.726441	-29.423986	240.698606	550.272107	-32.226779	315.554205	617.669191	-54.328093	208.773810	450.496106	-46.216790	234.265566	467.514531	-125.606519	157.478290	424.032369	-93.605491	399.046256	414.486239	-78.380303	315.739884	382.272868	-19.986626	53.970011	857.733829	-428.159579	130.226788	816.857341	-419.308164	154.950486	843.698473	-416.508592	176.101836	741.676837	-405.526637	249.983588	658.946785	-383.353041	253.658958	658.837849	-262.456201	-23.301625	394.543630	-381.264678	-7.405038	383.484426	-302.005616	-85.125363	392.391297	-337.162699	31.807751	257.123248	-397.709144	151.867596	584.153626	-414.117567	115.995346	505.189344	-397.197844	43.308173	454.021459	-394.264010	139.634199	489.971780	-371.727470	114.088120	234.918812	-337.427855	-204.399602	832.806959	-225.210511	-78.214609	81.678625	-423.702666	-102.693071	80.524004	-24.477485	
1002	5.0100	362.725569	1237.976886	28.390456	488.820059	1225.713009	-279.609074	397.720702	1313.768401	-163.596113	392.645649	1166.087942	-140.751612	370.635280	968.982922	72.229382	580.507521	909.264881	8.766937	475.680995	1033.355449	-484.502310	621.905442	906.089825	-397.545524	-94.062452	1101.348393	-252.086454	88.076191	1096.463180	-390.631213	48.325211	1136.022360	-108.459721	106.297504	1016.156473	-354.020723	76.765928	1059.306017	-99.519964	-63.148234	1168.116412	-204.575794	-37.005292	1163.438233	-317.478299	-25.893313	1044.660962	-52.641768	-24.381842	965.486694	-422.931654	88.959202	944.771056	-21.187417	175.193664	924.539312	-29.481791	237.562321	865.838278	-25.856909	190.557680	956.653445	-42.338056	339.935636	802.509331	-42.967608	335.181219	782.633389	-158.664839	285.995612	697.777816	-16.718125	284.423390	609.399201	-28.947938	240.668381	535.143498	-32.406439	314.113551	604.267572	-53.854728	210.893093	438.195417	-45.871852	237.203775	456.249213	-125.440564	159.612212	411.572915	-93.302816	401.522899	404.771659	-78.119082	318.604246	371.405707	-19.769763	57.035792	858.449035	-428.016036	133.713931	818.452895	-418.644196	158.119832	845.592563	-415.798661	180.237342	743.692085	-404.060115	255.673633	662.000707	-381.713742	256.653453	662.935180	-259.740220	-23.918739	405.261910	-381.485982	-8.356227	393.941744	-302.207761	-86.282621	404.036415	-337.390930	28.826835	267.129706	-397.914523	157.178723	590.343344	-413.522409	118.596702	512.130055	-396.177297	44.270636	463.292187	-394.423613	141.553318	496.433879	-370.435726	110.799584	243.850365	-337.530214	-204.621534	832.765955	-224.572967	-78.207835	81.684968	-423.718322	-102.707411	80.526603	-24.479232	
1003	5.0150	364.500398	1238.626660	27.334279	486.641271	1226.618619	-281.221002	397.801556	1313.976514	-164.374829	392.896517	1165.966489	-141.562462	371.604667	970.011502	71.767412	580.877957	909.348287	8.830467	476.318611	1033.775351	-485.259401	622.117297	906.160067	-397.872615	-94.477744	1099.820242	-252.626023	88.115666	1095.533419	-389.852763	48.233078	1135.141052	-107.684135	106.042036	1014.923122	-351.774236	76.639279	1058.250405	-98.578779	-64.073011	1166.518075	-204.256583	-37.171564	1162.163862	-317.321606	-27.111736	1040.030207	-53.362300	-22.487609	964.672879	-422.948654	87.552278	938.382771	-20.076628	173.582852	917.096949	-28.425871	234.334167	855.889366	-25.238765	189.787162	947.742735	-40.532331	334.490334	789.378454	-41.456746	332.058266	771.563653	-156.236530	281.594438	685.617064	-14.748453	282.462789	597.272695	-27.748385	240.880064	522.111550	-31.928638	312.905194	593.307739	-52.037067	212.716796	425.986727	-45.316801	238.890345	444.004324	-125.133806	162.009576	399.138102	-93.077763	403.658051	394.629590	-77.985090	321.103100	360.473714	-19.532504	60.396435	859.242027	-427.959517	137.442652	819.958355	-417.750073	161.376666	847.065463	-414.022739	185.316657	746.326004	-403.278136	261.260758	665.076581	-380.030051	259.195627	666.450058	-257.351488	-24.002066	416.087015	-381.535044	-8.752127	404.486297	-302.246785	-86.758544	415.748329	-337.516091	26.481422	277.491143	-398.073704	162.133661	596.690564	-412.559653	121.531408	519.386749	-395.308585	45.987501	472.451125	-394.119158	143.809196	503.595000	-369.667014	108.116137	252.978293	-337.565335	-204.641727	832.740097	-224.574379	-78.214768	81.666553	-423.694209	-102.697696	80.540333	-24.469001	
1004	5.0200	367.008085	1239.007445	25.918841	484.287467	1227.937682	-283.486165	398.003685	1313.995053	-165.611028	393.317677	1165.502550	-141.907116	372.733752	971.048201	71.307480	581.274078	909.417847	8.865208	476.857394	1034.243347	-486.260854	622.250728	906.280710	-398.163463	-94.960191	1098.178313	-253.187049	88.170042	1094.500091	-388.982631	48.208926	1134.114423	-106.876767	106.176253	1014.106323	-350.188097	76.396843	1057.148922	-97.466626	-63.771303	1164.966493	-201.288708	-38.328875	1160.414190	-315.168339	-27.842325	1035.331774	-53.840735	-20.340938	963.752925	-422.921026	86.222335	932.223223	-19.069228	171.620372	907.944691	-26.099947	231.001200	845.879414	-24.990754	188.876413	939.359573	-37.496659	328.804877	776.933564	-40.347212	328.520983	761.900464	-154.243106	276.954152	675.930988	-13.038466	279.960034	587.659443	-26.225441	240.189647	511.487196	-30.927931	310.908214	584.334207	-49.729204	214.070389	413.980382	-44.811623	240.656702	432.283029	-124.714482	163.668319	387.215876	-92.721998	405.374981	384.101632	-77.849757	323.131539	349.299257	-19.368436	64.016237	859.911562	-427.930666	141.364228	821.679339	-416.680803	165.030798	849.103194	-412.976109	189.938105	748.573115	-401.487984	266.936916	668.224273	-378.342395	261.105144	670.292274	-255.430634	-23.381057	427.185914	-381.490052	-8.436763	415.261426	-302.201629	-86.443111	427.814063	-337.665491	24.843135	287.883168	-398.173364	166.585629	603.159612	-411.043575	124.872302	526.592272	-394.741437	48.124288	481.762395	-393.818924	146.159925	510.461152	-367.974537	106.102047	262.416450	-337.635946	-204.645161	832.741840	-224.528543	-78.168715	81.694739	-423.650357	-102.690743	80.556477	-24.441441	
